<?xml version="1.0" encoding="UTF-8"?>
<svg version="1.1" xmlns="http://www.w3.org/2000/svg" width="118" height="118">
<path d="M0 0 C38.94 0 77.88 0 118 0 C118 38.94 118 77.88 118 118 C79.06 118 40.12 118 0 118 C0 79.06 0 40.12 0 0 Z " fill="#BAC0D1" transform="translate(0,0)"/>
<path d="M0 0 C31.02 0 62.04 0 94 0 C94 38.94 94 77.88 94 118 C62.65 118 31.3 118 -1 118 C-1 117.67 -1 117.34 -1 117 C0.03125 116.74057617 1.0625 116.48115234 2.125 116.21386719 C5.78108634 115.1647154 8.75457361 113.58644387 12 111.578125 C13.12253174 110.88952393 14.24506348 110.20092285 15.40161133 109.49145508 C16.60114046 108.74440974 17.80060172 107.99725541 19 107.25 C20.25298406 106.4779229 21.50649087 105.70669355 22.76049805 104.9362793 C25.30153219 103.37393332 27.8400213 101.80758015 30.37646484 100.23779297 C34.57666303 97.64042776 38.79493914 95.07320722 43.01635742 92.51049805 C45.79761579 90.82153865 48.57457648 89.12565965 51.3515625 87.4296875 C55.35180461 84.99175355 59.37012127 82.58655599 63.3984375 80.1953125 C64.4505542 79.5664917 65.5026709 78.9376709 66.58666992 78.28979492 C68.60043397 77.08686383 70.61860615 75.89127055 72.6418457 74.7043457 C78.3095141 71.30616438 82.82053129 68.53840613 85 62 C85.36963658 58.08185224 85.27411377 55.59806642 83.625 52 C77.95694295 45.52222052 70.37187725 41.55603451 62.93457031 37.39404297 C57.4869727 34.32851295 52.1792249 31.05627103 46.875 27.75 C37.42714655 21.86418467 27.91249925 16.09882869 18.34765625 10.40527344 C16.66873165 9.4002932 14.99479044 8.38696891 13.32421875 7.36816406 C11.99777344 6.56137207 11.99777344 6.56137207 10.64453125 5.73828125 C9.84249268 5.24755127 9.0404541 4.75682129 8.21411133 4.2512207 C5.57343213 2.75894141 2.9308704 1.77128168 0 1 C0 0.67 0 0.34 0 0 Z " fill="#FEFEFE" transform="translate(24,0)"/>
<path d="M0 0 C5.44426112 2.341413 10.60542994 5.31489709 15.734375 8.2734375 C15.734375 8.9334375 15.734375 9.5934375 15.734375 10.2734375 C14.455625 10.1084375 13.176875 9.9434375 11.859375 9.7734375 C2.56344501 8.48392521 2.56344501 8.48392521 -6.203125 10.8359375 C-11.18126188 16.71919018 -11.71031734 22.37921489 -11.69799805 29.78881836 C-11.7081897 30.71642975 -11.71838135 31.64404114 -11.72888184 32.59976196 C-11.75891938 35.64599724 -11.76826372 38.69191757 -11.77734375 41.73828125 C-11.79419727 43.85821063 -11.81234841 45.97813005 -11.83174133 48.09803772 C-11.87917422 53.66282033 -11.90902711 59.22756258 -11.93518066 64.79248047 C-11.96501997 70.47696908 -12.01153876 76.16131874 -12.05664062 81.84570312 C-12.14259746 92.98820846 -12.20997673 104.13074245 -12.265625 115.2734375 C-16.0546875 114.5078125 -16.0546875 114.5078125 -17.953125 112.3984375 C-19.87261971 109.29068416 -20.39155076 106.771569 -20.41279602 103.19462585 C-20.41995132 102.36617157 -20.42710663 101.53771729 -20.43447876 100.68415833 C-20.43716766 99.77864731 -20.43985657 98.87313629 -20.44262695 97.94018555 C-20.44919815 96.98378174 -20.45576935 96.02737793 -20.46253967 95.04199219 C-20.48227054 91.8730461 -20.49393423 88.70414737 -20.50390625 85.53515625 C-20.50798178 84.4531727 -20.5120573 83.37118916 -20.51625633 82.25641823 C-20.53711518 76.53072933 -20.55141828 70.80506438 -20.56079102 65.0793457 C-20.57186099 59.16432121 -20.60626851 53.24967232 -20.64596272 47.33478069 C-20.6720995 42.787148 -20.68048021 38.23960526 -20.68407249 33.69190407 C-20.68894525 31.51141635 -20.70057876 29.33093283 -20.71911049 27.15051842 C-20.7434411 24.09833302 -20.7425479 21.0471256 -20.7355957 17.99487305 C-20.74840576 17.09543472 -20.76121582 16.1959964 -20.77441406 15.26930237 C-20.72879712 9.77125384 -19.92982293 6.63706113 -16.265625 2.2734375 C-11.52972962 -1.7859014 -5.77274898 -1.85126088 0 0 Z " fill="#797E92" transform="translate(26.265625,0.7265625)"/>
<path d="M0 0 C4.95 0 9.9 0 15 0 C13.35 1.32 11.7 2.64 10 4 C6.2547219 8.50814594 6.57401653 12.96864765 6.61181641 18.56030273 C6.60655945 19.5169986 6.60130249 20.47369446 6.59588623 21.4593811 C6.58269719 24.61761874 6.59142133 27.7753511 6.6015625 30.93359375 C6.59954129 33.13167925 6.59662946 35.32976409 6.59286499 37.52784729 C6.58844297 42.13362007 6.59486828 46.73921823 6.60888672 51.3449707 C6.6259683 57.2442158 6.61614293 63.14305112 6.59816933 69.04228115 C6.58731971 73.58135556 6.59078346 78.12033312 6.5985527 82.65941048 C6.60055196 84.83429068 6.59810507 87.00917972 6.59111404 89.18404961 C6.58348149 92.22637026 6.59512996 95.26803112 6.61181641 98.31030273 C6.60574371 99.20659897 6.59967102 100.1028952 6.59341431 101.02635193 C6.64469917 106.08255136 7.08177585 109.68461696 10 114 C11.65 115.32 13.3 116.64 15 118 C10.05 118 5.1 118 0 118 C0 79.06 0 40.12 0 0 Z " fill="#FEFEFE" transform="translate(0,0)"/>
<path d="M0 0 C2.5 1.5 2.5 1.5 4 3 C4.61875 2.690625 5.2375 2.38125 5.875 2.0625 C10.39716741 -0.1985837 13.92909485 -0.656853 19 0 C21.87029869 1.79393668 23.49131638 2.98263276 25 6 C25.084915 7.8863912 25.107193 9.77578515 25.09765625 11.6640625 C25.09443359 12.78554688 25.09121094 13.90703125 25.08789062 15.0625 C25.07532227 16.8259375 25.07532227 16.8259375 25.0625 18.625 C25.05798828 19.80835937 25.05347656 20.99171875 25.04882812 22.2109375 C25.03701467 25.14067507 25.02054258 28.07031272 25 31 C22.69 31 20.38 31 18 31 C17.505 18.625 17.505 18.625 17 6 C11.32075578 5.32448328 11.32075578 5.32448328 9.15698242 7.68847656 C7.84968379 10.30031524 7.5770193 12.07376686 7.48828125 14.984375 C7.45283203 15.91894531 7.41738281 16.85351562 7.38085938 17.81640625 C7.35830078 18.78449219 7.33574219 19.75257812 7.3125 20.75 C7.27833984 21.73355469 7.24417969 22.71710938 7.20898438 23.73046875 C7.12664727 26.15353199 7.05745162 28.57623998 7 31 C4.69 31 2.38 31 0 31 C-0.01458252 30.31373535 -0.02916504 29.6274707 -0.04418945 28.92041016 C-0.11850151 25.82136099 -0.21521582 22.72340945 -0.3125 19.625 C-0.33505859 18.54476562 -0.35761719 17.46453125 -0.38085938 16.3515625 C-0.4340332 14.8046875 -0.4340332 14.8046875 -0.48828125 13.2265625 C-0.51446533 12.27346191 -0.54064941 11.32036133 -0.56762695 10.33837891 C-0.71031006 9.56671387 -0.85299316 8.79504883 -1 8 C-3.76745084 5.69924738 -3.76745084 5.69924738 -6.625 6.25 C-7.800625 6.62125 -7.800625 6.62125 -9 7 C-10.23060421 9.46120841 -10.2057723 11.25776866 -10.31640625 14.0078125 C-10.35830078 14.99394531 -10.40019531 15.98007812 -10.44335938 16.99609375 C-10.48267578 18.02863281 -10.52199219 19.06117187 -10.5625 20.125 C-10.60568359 21.16527344 -10.64886719 22.20554687 -10.69335938 23.27734375 C-10.7996288 25.85142528 -10.90166583 28.42560508 -11 31 C-13.31 31 -15.62 31 -18 31 C-18 21.1 -18 11.2 -18 1 C-15.36 1 -12.72 1 -10 1 C-6.82253509 -0.58873246 -3.45987798 -0.41026221 0 0 Z " fill="#FBFBFB" transform="translate(61,43)"/>
<path d="M0 0 C0.81597656 0.05542969 1.63195312 0.11085938 2.47265625 0.16796875 C9.22446696 0.76537437 13.20765044 2.04690077 18 7 C15.87506859 7.02693575 13.75004088 7.04636628 11.625 7.0625 C10.44164063 7.07410156 9.25828125 7.08570313 8.0390625 7.09765625 C5 7 5 7 3 6 C3 5.34 3 4.68 3 4 C1.29167215 3.9787219 -0.41734243 4.01013183 -2.125 4.0625 C-3.07632812 4.07410156 -4.02765625 4.08570313 -5.0078125 4.09765625 C-9.47950566 5.44616946 -11.80304001 7.91028164 -14 12 C-14.68901145 15.39452484 -14.51475109 18.61760034 -14.3125 22.0625 C-14.25228106 24.09098917 -14.19791222 26.11965784 -14.1484375 28.1484375 C-14.11717773 29.23866211 -14.08591797 30.32888672 -14.05371094 31.45214844 C-13.9642208 37.36337858 -14.15929555 43.26387453 -14.36727905 49.17062378 C-14.43662835 51.16246451 -14.49730027 53.15460121 -14.55786133 55.14672852 C-14.62009888 56.98255493 -14.62009888 56.98255493 -14.68359375 58.85546875 C-14.72025146 59.94496826 -14.75690918 61.03446777 -14.79467773 62.15698242 C-14.96978153 64.58157659 -15.3101338 66.67858445 -16 69 C-15.34 69.33 -14.68 69.66 -14 70 C-14 82.87 -14 95.74 -14 109 C-15.98 108.67 -17.96 108.34 -20 108 C-19.96191444 95.62114033 -19.90251049 83.24258242 -19.81609726 70.86396027 C-19.77663481 65.11567565 -19.74444012 59.36754395 -19.72900391 53.61914062 C-19.71382947 48.06872135 -19.67936925 42.5187225 -19.63169098 36.9684906 C-19.61688543 34.85391398 -19.60895946 32.73927733 -19.60811615 30.62464905 C-19.60574232 27.65621429 -19.57862835 24.68893747 -19.54589844 21.72070312 C-19.5509288 20.85179443 -19.55595917 19.98288574 -19.56114197 19.08764648 C-19.44130977 12.03563242 -17.44970174 6.88200204 -12.875 1.5 C-8.57480586 -0.74357955 -4.75281472 -0.36016872 0 0 Z " fill="#9AA0B2" transform="translate(33,9)"/>
<path d="M0 0 C1.12148438 -0.02578125 2.24296875 -0.0515625 3.3984375 -0.078125 C6.94085696 0.28212105 8.8212621 1.08681645 11.625 3.25 C11.625 3.91 11.625 4.57 11.625 5.25 C10.34625 5.085 9.0675 4.92 7.75 4.75 C-1.54592999 3.46048771 -1.54592999 3.46048771 -10.3125 5.8125 C-15.29063688 11.69575268 -15.81969234 17.35577739 -15.80737305 24.76538086 C-15.82266052 26.15679794 -15.82266052 26.15679794 -15.83825684 27.57632446 C-15.86829438 30.62255974 -15.87763872 33.66848007 -15.88671875 36.71484375 C-15.90357227 38.83477313 -15.92172341 40.95469255 -15.94111633 43.07460022 C-15.98854922 48.63938283 -16.01840211 54.20412508 -16.04455566 59.76904297 C-16.07439497 65.45353158 -16.12091376 71.13788124 -16.16601562 76.82226562 C-16.25197246 87.96477096 -16.31935173 99.10730495 -16.375 110.25 C-17.365 109.92 -18.355 109.59 -19.375 109.25 C-19.42145854 97.81856577 -19.45693772 86.38715422 -19.47862434 74.95564461 C-19.48903584 69.64682796 -19.50314674 64.33807619 -19.52587891 59.02929688 C-19.54770144 53.90051516 -19.55958841 48.77179562 -19.56475449 43.64297104 C-19.5684334 41.69188331 -19.57561717 39.74079877 -19.58646011 37.7897377 C-19.60110027 35.04481046 -19.60297275 32.30013614 -19.60205078 29.55517578 C-19.60924133 28.75891281 -19.61643188 27.96264984 -19.62384033 27.14225769 C-19.59711947 19.73044859 -19.13490375 11.24395287 -14.375 5.25 C-9.62902001 0.97861801 -6.30986225 0.08663426 0 0 Z " fill="#898EA1" transform="translate(30.375,5.75)"/>
<path d="M0 0 C0.33 0.66 0.66 1.32 1 2 C-0.19625 2.020625 -1.3925 2.04125 -2.625 2.0625 C-7.13848397 2.65366422 -9.00952292 4.37460237 -11.79589844 7.85668945 C-14.00973916 11.79734389 -13.57083206 15.66238507 -13.3125 20.0625 C-13.25228106 22.09098917 -13.19791222 24.11965784 -13.1484375 26.1484375 C-13.11717773 27.23866211 -13.08591797 28.32888672 -13.05371094 29.45214844 C-12.9642208 35.36337858 -13.15929555 41.26387453 -13.36727905 47.17062378 C-13.43662835 49.16246451 -13.49730027 51.15460121 -13.55786133 53.14672852 C-13.62009888 54.98255493 -13.62009888 54.98255493 -13.68359375 56.85546875 C-13.72025146 57.94496826 -13.75690918 59.03446777 -13.79467773 60.15698242 C-13.96978153 62.58157659 -14.3101338 64.67858445 -15 67 C-14.34 67.33 -13.68 67.66 -13 68 C-13 80.87 -13 93.74 -13 107 C-14.32 106.67 -15.64 106.34 -17 106 C-16.34 106 -15.68 106 -15 106 C-15.33 105.34 -15.66 104.68 -16 104 C-16.13003659 101.05266998 -16.19947967 98.12793978 -16.22460938 95.17919922 C-16.23599945 94.2651683 -16.24738953 93.35113739 -16.25912476 92.40940857 C-16.36982444 82.84009741 -16.41721737 73.27001198 -16.45996094 63.70019531 C-16.48222787 59.16042233 -16.5239829 54.62147245 -16.58300781 50.08203125 C-16.65414158 44.60071926 -16.69080027 39.12018142 -16.70307922 33.63843155 C-16.71347313 31.5516328 -16.73588138 29.46485714 -16.77067566 27.3783226 C-16.81697003 24.45035832 -16.81887188 21.52541817 -16.81054688 18.59716797 C-16.83414276 17.74075211 -16.85773865 16.88433624 -16.88204956 16.00196838 C-16.79836194 9.89654153 -14.90302765 6.88587172 -10.69806671 2.51025581 C-7.28412562 -0.5260939 -4.44618627 -0.08233678 0 0 Z " fill="#A8AEC0" transform="translate(32,11)"/>
<path d="M0 0 C2.05078125 0.03255208 4.1015625 0.06510417 6.15234375 0.09765625 C6.15234375 2.07765625 6.15234375 4.05765625 6.15234375 6.09765625 C5.22421875 6.03578125 4.29609375 5.97390625 3.33984375 5.91015625 C0.19779953 5.79828668 0.19779953 5.79828668 -1.66015625 7.47265625 C-3.7225937 10.29493908 -4.01138004 12.22170748 -4.1640625 15.66796875 C-4.20595703 16.56386719 -4.24785156 17.45976563 -4.29101562 18.3828125 C-4.33033203 19.31996094 -4.36964844 20.25710937 -4.41015625 21.22265625 C-4.47493164 22.63998047 -4.47493164 22.63998047 -4.54101562 24.0859375 C-4.64724697 26.42302717 -4.74928801 28.76022455 -4.84765625 31.09765625 C-6.82765625 31.09765625 -8.80765625 31.09765625 -10.84765625 31.09765625 C-10.84765625 21.19765625 -10.84765625 11.29765625 -10.84765625 1.09765625 C-8.18098958 1.09765625 -5.51432292 1.09765625 -2.84765625 1.09765625 C-1.84765625 0.09765625 -1.84765625 0.09765625 0 0 Z " fill="#FDFDFD" transform="translate(29.84765625,42.90234375)"/>
<path d="M0 0 C0.66 0 1.32 0 2 0 C2 1.65 2 3.3 2 5 C0.865625 5.309375 -0.26875 5.61875 -1.4375 5.9375 C-4.78775099 6.62924531 -4.78775099 6.62924531 -6 8 C-6.14510891 9.60947472 -6.2271111 11.22474795 -6.28125 12.83984375 C-6.31863281 13.82017578 -6.35601562 14.80050781 -6.39453125 15.81054688 C-6.42933594 16.84244141 -6.46414062 17.87433594 -6.5 18.9375 C-6.56873045 20.96759397 -6.64145021 22.99755802 -6.71875 25.02734375 C-6.76418945 26.38460571 -6.76418945 26.38460571 -6.81054688 27.76928711 C-7 30 -7 30 -8 32 C-10.31 32 -12.62 32 -15 32 C-15.33 30.68 -15.66 29.36 -16 28 C-14.35 28 -12.7 28 -11 28 C-11.01571045 27.42032471 -11.0314209 26.84064941 -11.04760742 26.2434082 C-11.11022791 23.59987261 -11.14907518 20.95649345 -11.1875 18.3125 C-11.21263672 17.40048828 -11.23777344 16.48847656 -11.26367188 15.54882812 C-11.3580183 6.90040605 -11.3580183 6.90040605 -8 3 C-4.68027502 1.83809626 -3.37151546 1.87616151 0 3 C0 2.01 0 1.02 0 0 Z " fill="#A0A3AD" transform="translate(36,46)"/>
<path d="M0 0 C0.99 0 1.98 0 3 0 C3.28875 0.639375 3.5775 1.27875 3.875 1.9375 C4.82823451 4.15206079 4.82823451 4.15206079 7 5 C7.0867562 9.29154022 7.1403089 13.58285668 7.1875 17.875 C7.21263672 19.09832031 7.23777344 20.32164063 7.26367188 21.58203125 C7.27333984 22.74863281 7.28300781 23.91523437 7.29296875 25.1171875 C7.31653442 26.73536377 7.31653442 26.73536377 7.34057617 28.38623047 C7.17199097 29.68004639 7.17199097 29.68004639 7 31 C4 33 4 33 0.8125 32.625 C-0.115625 32.41875 -1.04375 32.2125 -2 32 C-2 31.01 -2 30.02 -2 29 C-0.35 29 1.3 29 3 29 C2.89008359 24.91611387 2.75946145 20.83314589 2.625 16.75 C2.5940625 15.59113281 2.563125 14.43226562 2.53125 13.23828125 C2.49257812 12.12324219 2.45390625 11.00820313 2.4140625 9.859375 C2.3826416 8.83295898 2.3512207 7.80654297 2.31884766 6.74902344 C2.00363375 4.03132927 1.38967649 2.33075565 0 0 Z " fill="#9398A5" transform="translate(83,45)"/>
<path d="M0 0 C2.97 0.495 2.97 0.495 6 1 C6 1.99 6 2.98 6 4 C3.69 4.66 1.38 5.32 -1 6 C-1.02505615 6.63091553 -1.0501123 7.26183105 -1.07592773 7.91186523 C-1.19154137 10.75396825 -1.31442316 13.59571083 -1.4375 16.4375 C-1.47681641 17.43072266 -1.51613281 18.42394531 -1.55664062 19.44726562 C-1.59853516 20.39150391 -1.64042969 21.33574219 -1.68359375 22.30859375 C-1.72025146 23.18314209 -1.75690918 24.05769043 -1.79467773 24.95874023 C-2 27 -2 27 -3 28 C-4.66617115 28.04063832 -6.33388095 28.042721 -8 28 C-8 27.34 -8 26.68 -8 26 C-6.68 26 -5.36 26 -4 26 C-4.02094727 25.39003174 -4.04189453 24.78006348 -4.06347656 24.15161133 C-4.14692861 21.37207706 -4.19875011 18.5928068 -4.25 15.8125 C-4.28351563 14.85279297 -4.31703125 13.89308594 -4.3515625 12.90429688 C-4.45112665 5.71078676 -4.45112665 5.71078676 -1.984375 1.82421875 C-1.32953125 1.22222656 -0.6746875 0.62023438 0 0 Z " fill="#818591" transform="translate(72,48)"/>
<path d="M0 0 C2.3125 0.875 2.3125 0.875 3.3125 2.875 C1.0025 3.535 -1.3075 4.195 -3.6875 4.875 C-3.71255615 5.5362085 -3.7376123 6.19741699 -3.76342773 6.87866211 C-3.87903102 9.85682305 -4.00191754 12.8346392 -4.125 15.8125 C-4.16431641 16.85341797 -4.20363281 17.89433594 -4.24414062 18.96679688 C-4.28603516 19.95615234 -4.32792969 20.94550781 -4.37109375 21.96484375 C-4.40775146 22.88128662 -4.44440918 23.79772949 -4.48217773 24.74194336 C-4.6875 26.875 -4.6875 26.875 -5.6875 27.875 C-7.35367115 27.91563832 -9.02138095 27.917721 -10.6875 27.875 C-10.6875 27.215 -10.6875 26.555 -10.6875 25.875 C-9.3675 25.875 -8.0475 25.875 -6.6875 25.875 C-6.70844727 25.22950195 -6.72939453 24.58400391 -6.75097656 23.91894531 C-6.83424205 20.98778932 -6.88619206 18.05688223 -6.9375 15.125 C-6.97101562 14.10921875 -7.00453125 13.0934375 -7.0390625 12.046875 C-7.13789205 4.53582893 -7.13789205 4.53582893 -4.83984375 1.1640625 C-2.6875 -0.125 -2.6875 -0.125 0 0 Z " fill="#858995" transform="translate(56.6875,48.125)"/>
<path d="M0 0 C0.66 0 1.32 0 2 0 C2 1.65 2 3.3 2 5 C0.88625 5.2475 -0.2275 5.495 -1.375 5.75 C-4.92252687 6.59781888 -4.92252687 6.59781888 -6.1875 8.5625 C-7.35762311 12.07286933 -7.46954286 15.58380242 -7.625 19.25 C-7.66367187 19.99507812 -7.70234375 20.74015625 -7.7421875 21.5078125 C-7.83605108 23.3381524 -7.91909718 25.16904143 -8 27 C-8.33 27 -8.66 27 -9 27 C-9.28441048 23.58528554 -9.52147767 20.16887336 -9.75 16.75 C-9.83121094 15.78191406 -9.91242187 14.81382813 -9.99609375 13.81640625 C-10.44004107 6.66392162 -10.44004107 6.66392162 -8.21875 3.3125 C-6 2 -6 2 -2.75 2.25 C-1.38875 2.62125 -1.38875 2.62125 0 3 C0 2.01 0 1.02 0 0 Z " fill="#969BA8" transform="translate(36,46)"/>
<path d="M0 0 C0.99 0 1.98 0 3 0 C3 2.31 3 4.62 3 7 C2.21625 7.28875 1.4325 7.5775 0.625 7.875 C-2.09671632 8.84912254 -2.09671632 8.84912254 -4 11 C-4.36831081 12.93257855 -4.36831081 12.93257855 -4.4140625 15.1328125 C-4.45273437 15.93847656 -4.49140625 16.74414062 -4.53125 17.57421875 C-4.5621875 18.41597656 -4.593125 19.25773437 -4.625 20.125 C-4.66367187 20.97449219 -4.70234375 21.82398437 -4.7421875 22.69921875 C-4.83656494 24.79911684 -4.91937586 26.89952891 -5 29 C-5.66 29.33 -6.32 29.66 -7 30 C-7.08703823 26.56265937 -7.14040272 23.12560163 -7.1875 19.6875 C-7.21263672 18.71103516 -7.23777344 17.73457031 -7.26367188 16.72851562 C-7.27333984 15.79072266 -7.28300781 14.85292969 -7.29296875 13.88671875 C-7.3086792 13.02264404 -7.32438965 12.15856934 -7.34057617 11.26831055 C-7 9 -7 9 -5.6809082 7.20629883 C-3.17671844 5.40917441 -0.99045155 5.80063656 2 6 C2 4.35 2 2.7 2 1 C1.34 0.67 0.68 0.34 0 0 Z " fill="#B1B7C7" transform="translate(36,45)"/>
<path d="M0 0 C0.33 0 0.66 0 1 0 C1.05787784 3.62493334 1.0935542 7.24974857 1.125 10.875 C1.14175781 11.90753906 1.15851563 12.94007812 1.17578125 14.00390625 C1.18222656 14.99003906 1.18867187 15.97617188 1.1953125 16.9921875 C1.20578613 17.90339355 1.21625977 18.81459961 1.22705078 19.75341797 C1 22 1 22 -1 24 C-4.625 23.625 -4.625 23.625 -8 23 C-8.33 22.01 -8.66 21.02 -9 20 C-8.34 20 -7.68 20 -7 20 C-7 20.66 -7 21.32 -7 22 C-5.35 21.67 -3.7 21.34 -2 21 C-1.96241577 20.15236084 -1.96241577 20.15236084 -1.92407227 19.28759766 C-1.80820044 16.73316258 -1.68543463 14.1791045 -1.5625 11.625 C-1.52318359 10.73554687 -1.48386719 9.84609375 -1.44335938 8.9296875 C-1.40146484 8.07890625 -1.35957031 7.228125 -1.31640625 6.3515625 C-1.26141968 5.17327881 -1.26141968 5.17327881 -1.20532227 3.97119141 C-1 2 -1 2 0 0 Z " fill="#A9AEBD" transform="translate(71,54)"/>
<path d="M0 0 C0.99 0 1.98 0 3 0 C3.433125 0.9590625 3.433125 0.9590625 3.875 1.9375 C4.82823451 4.15206079 4.82823451 4.15206079 7 5 C7 13.58 7 22.16 7 31 C6.67 31 6.34 31 6 31 C5.99589111 30.38068604 5.99178223 29.76137207 5.98754883 29.12329102 C5.95429185 26.26877834 5.88361733 23.41631071 5.8125 20.5625 C5.80669922 19.58861328 5.80089844 18.61472656 5.79492188 17.61132812 C5.58279366 10.56395735 3.9719544 5.82547243 0 0 Z " fill="#A6ABBA" transform="translate(83,45)"/>
<path d="M0 0 C0.33 0 0.66 0 1 0 C1.02895976 3.12498063 1.04678483 6.2499269 1.0625 9.375 C1.07087891 10.26445313 1.07925781 11.15390625 1.08789062 12.0703125 C1.09111328 12.92109375 1.09433594 13.771875 1.09765625 14.6484375 C1.10289307 15.43395996 1.10812988 16.21948242 1.11352539 17.02880859 C1 19 1 19 0 21 C-2.31 21 -4.62 21 -7 21 C-7.33 19.68 -7.66 18.36 -8 17 C-6.02 17.33 -4.04 17.66 -2 18 C-0.414131 14.828262 -0.62133555 11.36486178 -0.4375 7.875 C-0.37272461 6.74384766 -0.37272461 6.74384766 -0.30664062 5.58984375 C-0.2005168 3.72678112 -0.09974999 1.86341476 0 0 Z " fill="#A7ACBB" transform="translate(28,57)"/>
<path d="M0 0 C3.04227453 1.59357237 5.83946581 3.36682419 8.625 5.375 C8.625 5.705 8.625 6.035 8.625 6.375 C4.04229218 6.68745735 2.11541109 6.30244156 -1.375 3.375 C-3.02297236 2.66337557 -4.68665408 1.98468047 -6.375 1.375 C-3.92089461 -0.26107026 -2.9096065 -0.76568592 0 0 Z " fill="#969BAD" transform="translate(67.375,24.625)"/>
<path d="M0 0 C0.33 0.66 0.66 1.32 1 2 C-0.7634375 2.061875 -0.7634375 2.061875 -2.5625 2.125 C-7.67389492 2.71722936 -10.50123478 5.42469929 -14 9 C-13.30171981 5.20005662 -11.8293296 3.40428587 -8.765625 0.97265625 C-5.87763667 -0.61829307 -3.19516459 -0.31951646 0 0 Z " fill="#ACB2C3" transform="translate(32,11)"/>
<path d="M0 0 C0.33 0 0.66 0 1 0 C1.02888146 3.31248187 1.04675799 6.62493167 1.0625 9.9375 C1.07087891 10.88302734 1.07925781 11.82855469 1.08789062 12.80273438 C1.09111328 13.70185547 1.09433594 14.60097656 1.09765625 15.52734375 C1.10289307 16.35999756 1.10812988 17.19265137 1.11352539 18.05053711 C1 20 1 20 0 21 C-1.66617115 21.04063832 -3.33388095 21.042721 -5 21 C-5 20.34 -5 19.68 -5 19 C-3.68 18.67 -2.36 18.34 -1 18 C-0.505 9.09 -0.505 9.09 0 0 Z " fill="#9498A6" transform="translate(51,55)"/>
<path d="M0 0 C1.9453125 0.77734375 1.9453125 0.77734375 4.125 1.9375 C5.21167969 2.50791016 5.21167969 2.50791016 6.3203125 3.08984375 C6.87460937 3.39019531 7.42890625 3.69054687 8 4 C8 4.66 8 5.32 8 6 C7.29875 5.855625 6.5975 5.71125 5.875 5.5625 C2.92443859 4.98521625 -0.03270151 4.48304859 -3 4 C-2.67 3.01 -2.34 2.02 -2 1 C-1.34 0.67 -0.68 0.34 0 0 Z " fill="#959AAC" transform="translate(52,16)"/>
<path d="M0 0 C0.33 0 0.66 0 1 0 C1.02684312 2.81256281 1.04676188 5.62487241 1.0625 8.4375 C1.07087891 9.23994141 1.07925781 10.04238281 1.08789062 10.86914062 C1.0965143 12.91295221 1.0522815 14.95683902 1 17 C0 18 0 18 -2.5625 18.0625 C-3.366875 18.041875 -4.17125 18.02125 -5 18 C-5 17.34 -5 16.68 -5 16 C-3.68 15.67 -2.36 15.34 -1 15 C-0.67 10.05 -0.34 5.1 0 0 Z " fill="#9397A4" transform="translate(69,58)"/>
<path d="M0 0 C2.29160319 -0.02692484 4.58329546 -0.04636124 6.875 -0.0625 C8.15117188 -0.07410156 9.42734375 -0.08570313 10.7421875 -0.09765625 C14 0 14 0 16 1 C16 1.66 16 2.32 16 3 C10.6496441 2.42978066 5.32212148 1.79265639 0 1 C0 0.67 0 0.34 0 0 Z " fill="#9196A9" transform="translate(26,8)"/>
<path d="M0 0 C2.97 0.495 2.97 0.495 6 1 C6 1.99 6 2.98 6 4 C4.02 4.66 2.04 5.32 0 6 C0 4.02 0 2.04 0 0 Z " fill="#989CA9" transform="translate(72,48)"/>
<path d="M0 0 C2.31309705 0.11341637 4.62550185 0.24103807 6.9375 0.375 C8.86916016 0.47941406 8.86916016 0.47941406 10.83984375 0.5859375 C12.40412109 0.79089844 12.40412109 0.79089844 14 1 C14.33 1.66 14.66 2.32 15 3 C12.87506859 3.02693575 10.75004088 3.04636628 8.625 3.0625 C7.44164062 3.07410156 6.25828125 3.08570313 5.0390625 3.09765625 C2 3 2 3 0 2 C0 1.34 0 0.68 0 0 Z " fill="#A2A8BA" transform="translate(36,13)"/>
<path d="M0 0 C-1.52708963 3.43595166 -3.59927045 6.11912454 -6 9 C-5.6875 5.625 -5.6875 5.625 -5 2 C-2 0 -2 0 0 0 Z " fill="#878B96" transform="translate(32,48)"/>
<path d="M0 0 C0.33 0 0.66 0 1 0 C0.25 6.75 0.25 6.75 -2 9 C-2.6875 6.75 -2.6875 6.75 -3 4 C-1.625 1.6875 -1.625 1.6875 0 0 Z " fill="#8A8E9A" transform="translate(71,49)"/>
<path d="M0 0 C0.33 0.66 0.66 1.32 1 2 C-1.31 2.33 -3.62 2.66 -6 3 C-6.33 2.01 -6.66 1.02 -7 0 C-4.30234372 -1.34882814 -2.84835666 -0.80338265 0 0 Z " fill="#8E939F" transform="translate(59,49)"/>
</svg>
